<?xml version="1.0" encoding="utf-8"?>
<!-- Generator: Adobe Illustrator 23.1.1, SVG Export Plug-In . SVG Version: 6.00 Build 0)  -->
<svg version="1.1" id="Layer_1" xmlns="http://www.w3.org/2000/svg" xmlns:xlink="http://www.w3.org/1999/xlink" x="0px" y="0px"
	 viewBox="0 0 170.1 57.3" style="enable-background:new 0 0 170.1 57.3;" xml:space="preserve">
<style type="text/css">
	.st0{fill:#FFFFFF;}
</style>
<path class="st0" d="M142.6,41c7.3,0,10-4.7,10-10h0V16.2H147v14.3c0,3.8-1.1,5.5-4.4,5.5c-3.3,0-4.7-1.7-4.7-5.5V16.2h-5.6V31
	C132.4,36.6,135.3,41,142.6,41z"/>
<path class="st0" d="M73.6,40.8h5.9l2.6-5.7h7.5l2.6,5.7H98l-12.2-26L73.6,40.8z M83.6,31.1l2.2-4.6l2.2,4.6H83.6z"/>
<path class="st0" d="M30.6,36.3c-4.7,0-7.5-3.5-7.5-8.1c0-4.8,3.4-7.8,7.3-7.8c2.8,0,5,1,6,2.5l3.5-3.5c-2.3-3.1-6-3.9-9.5-3.9
	c-7.1,0-12.7,5.4-12.7,12.7c0,7.6,5.3,12.8,12.8,12.8c3.3,0,7.5-1,10.3-5.6l-3.8-2.9C35,36,31.9,36.3,30.6,36.3z"/>
<rect x="56.3" y="15.9" class="st0" width="2.3" height="41.4"/>
<rect x="113" y="0" class="st0" width="2.3" height="40.8"/>
</svg>
