<?xml version="1.0" encoding="utf-8"?>
<!-- Generator: Adobe Illustrator 23.1.1, SVG Export Plug-In . SVG Version: 6.00 Build 0)  -->
<svg version="1.1" id="Layer_1" xmlns="http://www.w3.org/2000/svg" xmlns:xlink="http://www.w3.org/1999/xlink" x="0px" y="0px"
	 viewBox="0 0 54 54" style="enable-background:new 0 0 54 54;" xml:space="preserve">
<style type="text/css">
	.st0{fill:#FFFFFF;}
</style>
<polygon class="st0" points="26.8,26.2 31.3,30.7 33.7,28.3 29.3,23.9 33.7,19.5 31.3,17.1 26.9,21.5 22.5,17.1 20.1,19.5 
	24.4,23.8 20,28.2 22.4,30.6 "/>
<polygon class="st0" points="22.4,14.6 26.8,10.3 31.2,14.6 33.6,12.2 29.2,7.8 33.6,3.4 31.2,1 26.8,5.4 22.5,1 20.1,3.4 24.4,7.8 
	20,12.2 "/>
<polygon class="st0" points="31.2,39.4 26.8,43.7 22.4,39.4 20,41.8 24.4,46.2 20,50.6 22.4,53 26.8,48.6 31.2,53 33.6,50.6 
	29.2,46.2 33.6,41.8 "/>
<path class="st0" d="M13.9,29.6c0,0,0,2.8,0.7,4.1c1.2,1.9,2.6,2.6,3.5,3.1c0.7,0.3,2,0.8,3.5,1c1.4,0.2,3.9,0.4,6.9-0.4
	c3.1-0.8,4.5-2.2,4.5-2.2l2.3-2.2v5.3l5.2-1.1c0,0-0.6-4.2-0.6-11.3s0.3-10.9,0.3-10.9l-5,0.2c0,0,0.7,5.4,0.4,10.7
	c-0.3,5.1-1.1,6-1.1,6c-1.1,2.1-4.6,2.6-6.4,2.7c-1.8,0.1-2.6,0-2.6,0s-5.2-0.2-6.3-2.6c-0.7-1.4-0.8-4.1-0.8-4.1
	s-0.1-12.6-0.1-12.9c0-0.1-1,0.1-2.2,0.1c-0.9,0-2.3-0.1-2.3-0.1l0.4,9.3L13.9,29.6z"/>
</svg>
