<?xml version="1.0" encoding="utf-8"?>
<!-- Generator: Adobe Illustrator 23.1.1, SVG Export Plug-In . SVG Version: 6.00 Build 0)  -->
<svg version="1.1" id="Layer_1" xmlns="http://www.w3.org/2000/svg" xmlns:xlink="http://www.w3.org/1999/xlink" x="0px" y="0px"
	 viewBox="0 0 56.7 57.3" style="enable-background:new 0 0 56.7 57.3;" xml:space="preserve">
<style type="text/css">
	.st0{fill:#666666;}
</style>
<path class="st0" d="M0,0v56.7h56.7V0H0z M21.7,5.2l2.4-2.4l4.2,4.3l4.3-4.3L35,5.2l-4.3,4.3l4.3,4.3l-2.4,2.4l-4.3-4.3L24,16.2
	l-2.4-2.4l4.3-4.3L21.7,5.2z M21.7,21l2.4-2.4l4.3,4.3l4.3-4.3l2.4,2.4l-4.3,4.3l4.3,4.3L32.7,32l-4.4-4.4L24,31.9l-2.4-2.4l4.3-4.3
	L21.7,21z M35,51.5l-2.4,2.4l-4.3-4.3L24,53.9l-2.4-2.4l4.3-4.3l-4.3-4.3l2.4-2.4l4.3,4.3l4.3-4.3l2.4,2.4l-4.3,4.3L35,51.5z
	 M36.6,39.3v-5.2l-2.3,2.2c0,0-1.4,1.4-4.4,2.2s-5.4,0.6-6.8,0.4s-2.7-0.7-3.4-1c-0.8-0.4-2.2-1.1-3.4-3c-0.7-1.2-0.7-4-0.7-4
	l0.1-5.4l-0.4-9.1c0,0,1.4,0.1,2.3,0.1c1.2,0,2.2-0.2,2.2-0.1c0,0.3,0.1,12.7,0.1,12.7s0.1,2.6,0.8,4c1.1,2.4,6.2,2.6,6.2,2.6
	s0.8,0.1,2.6,0c1.8-0.1,5.2-0.6,6.3-2.7c0,0,0.8-0.9,1.1-5.9c0.3-5.2-0.4-10.5-0.4-10.5l4.9-0.2c0,0-0.3,3.7-0.3,10.7
	s0.6,11.1,0.6,11.1L36.6,39.3z"/>
</svg>
