<?xml version="1.0" encoding="utf-8"?>
<!-- Generator: Adobe Illustrator 23.1.1, SVG Export Plug-In . SVG Version: 6.00 Build 0)  -->
<svg version="1.1" id="ZonMw-logo-cmyk" xmlns="http://www.w3.org/2000/svg" xmlns:xlink="http://www.w3.org/1999/xlink" x="0px"
	 y="0px" viewBox="0 0 575.52 139.43" style="enable-background:new 0 0 575.52 139.43;" xml:space="preserve">
<style type="text/css">
	.st0{fill:#FFFFFF;}
</style>
<g>
	<g>
		<polygon class="st0" points="204.13,52.22 232.59,52.22 202.85,99.85 202.85,112.29 253.64,112.29 253.64,97.94 223.9,97.94 
			253.64,50.31 253.64,37.87 204.13,37.87 		"/>
		<path class="st0" d="M369.48,54.24c-2.06,0-3.9,0.25-5.53,0.75c-1.63,0.5-3.12,1.18-4.47,2.04c-1.35,0.86-2.57,1.84-3.67,2.94
			c-1.1,1.11-2.11,2.27-3.03,3.48v-8.15h-16.16v56.98h16.16V80.58c0-3.82,0.9-6.7,2.71-8.64c1.81-1.94,4.27-2.92,7.39-2.92
			c3.12,0,5.53,0.97,7.23,2.92c1.7,1.94,2.55,4.83,2.55,8.64v31.71h16.16V75.4c0-6.59-1.68-11.76-5.05-15.52
			C380.42,56.12,375.65,54.24,369.48,54.24z"/>
		<polygon class="st0" points="443.19,69.34 425.5,37.87 407.85,37.87 407.85,112.29 424.01,112.29 424.01,66.73 442.88,95.49 
			443.3,95.49 462.38,66.41 462.38,112.29 478.54,112.29 478.54,37.87 460.89,37.87 		"/>
		<polygon class="st0" points="559.47,55.31 550.11,89.97 539.33,55.3 525.28,55.3 514.6,89.86 505.46,55.31 489.09,55.31 
			506.5,112.29 521.22,112.29 532.25,77.74 543.07,112.29 557.9,112.29 575.52,55.31 		"/>
		<path class="st0" d="M316.17,62.8c-2.73-2.66-5.97-4.75-9.73-6.27c-3.76-1.52-7.83-2.29-12.23-2.29c-4.46,0-8.58,0.78-12.33,2.34
			c-3.76,1.56-7.02,3.69-9.78,6.38c-2.76,2.69-4.93,5.83-6.49,9.41c-1.56,3.58-2.34,7.43-2.34,11.54v0.21
			c0,4.11,0.78,7.96,2.34,11.54c1.56,3.58,3.7,6.7,6.43,9.36c2.73,2.66,5.97,4.75,9.73,6.27c3.76,1.52,7.83,2.29,12.23,2.29
			c4.47,0,8.58-0.78,12.33-2.34c3.76-1.56,7.02-3.68,9.78-6.38c2.76-2.69,4.93-5.83,6.49-9.41c1.56-3.58,2.34-7.42,2.34-11.53v-0.21
			c0-4.11-0.78-7.96-2.34-11.54C321.04,68.58,318.89,65.46,316.17,62.8z M308.99,84.12c0,2.13-0.34,4.13-1.01,6.01
			c-0.67,1.88-1.65,3.53-2.92,4.94c-1.28,1.42-2.82,2.54-4.62,3.35c-1.81,0.82-3.88,1.22-6.22,1.22c-2.27,0-4.31-0.43-6.11-1.28
			c-1.81-0.85-3.39-2-4.73-3.46c-1.35-1.45-2.38-3.12-3.08-5c-0.71-1.88-1.06-3.88-1.06-6.01v-0.21c0-2.13,0.34-4.13,1.01-6.01
			c0.67-1.88,1.65-3.52,2.92-4.94c1.28-1.42,2.82-2.53,4.62-3.35c1.81-0.81,3.88-1.22,6.22-1.22c2.2,0,4.22,0.43,6.06,1.28
			c1.84,0.85,3.44,2,4.78,3.46c1.35,1.45,2.37,3.12,3.08,5c0.71,1.88,1.06,3.88,1.06,6.01V84.12z"/>
	</g>
	<g>
		<path class="st0" d="M113.26,81.24c0,15.05-6.36,28.61-16.52,38.17l23.51,20.03c22.41-13.89,37.35-38.71,37.35-67.02
			c0-32.47-19.65-60.35-47.7-72.42L86.7,35.67C102.56,44.67,113.26,61.7,113.26,81.24z"/>
		<path class="st0" d="M6.01,42.2C2.14,51.51,0,61.71,0,72.42c0,22.8,9.69,43.33,25.17,57.72l29.98-46.08L6.01,42.2z"/>
		<path class="st0" d="M72.12,58.08l-16.9,25.97l23.59,20.09c4.61-5.41,7.39-12.42,7.39-20.08C86.2,73.18,80.59,63.61,72.12,58.08z"
			/>
	</g>
</g>
</svg>
