<?xml version="1.0" encoding="utf-8"?>
<!-- Generator: Adobe Illustrator 23.1.1, SVG Export Plug-In . SVG Version: 6.00 Build 0)  -->
<svg version="1.1" id="Layer_1" xmlns="http://www.w3.org/2000/svg" xmlns:xlink="http://www.w3.org/1999/xlink" x="0px" y="0px"
	 viewBox="0 0 40.1 41" style="enable-background:new 0 0 40.1 41;" xml:space="preserve">
<style type="text/css">
	.st0{fill:#3A98A7;}
	.st1{fill:#FFFFFF;}
</style>
<g>
	<g>
		<path class="st1" d="M40.05,20c0.44,5.25-1.54,10.76-5.31,14.69c-1.86,1.99-4.17,3.56-6.68,4.66c-2.52,1.08-5.27,1.63-8.01,1.65
			c-2.75-0.02-5.49-0.57-8.02-1.65c-2.51-1.1-4.82-2.67-6.68-4.66C1.59,30.76-0.39,25.25,0.05,20c0.41,5.24,2.73,10.13,6.41,13.59
			c3.66,3.46,8.6,5.44,13.59,5.41c4.99,0.03,9.93-1.95,13.59-5.41C37.32,30.14,39.64,25.24,40.05,20z"/>
	</g>
	<g>
		<path class="st1" d="M19.05,40c0.15-2.15-0.12-4.44-0.78-6.56c-0.34-1.06-0.79-2.1-1.47-2.98c-0.66-0.87-1.63-1.59-2.81-1.68
			c1.17-0.09,2.33,0.51,3.18,1.34c0.86,0.84,1.5,1.87,2.02,2.94c1.02,2.16,1.66,4.48,1.85,6.93H19.05z"/>
	</g>
	<g>
		<path class="st1" d="M19.05,40c0.2-2.46,0.83-4.77,1.85-6.93c0.52-1.07,1.16-2.1,2.02-2.94c0.84-0.84,2.01-1.43,3.18-1.34
			c-1.17,0.09-2.14,0.8-2.81,1.68c-0.68,0.88-1.13,1.92-1.47,2.98c-0.66,2.13-0.92,4.41-0.78,6.56H19.05z"/>
	</g>
	<g>
		<circle class="st1" cx="20.05" cy="22.99" r="1.5"/>
		<circle class="st1" cx="27.47" cy="23.68" r="1.5"/>
		<circle class="st1" cx="12.77" cy="23.68" r="1.5"/>
		<circle class="st1" cx="20.05" cy="12.18" r="1.5"/>
		<circle class="st1" cx="30.62" cy="20.74" r="1.5"/>
		<circle class="st1" cx="27.9" cy="15.56" r="1.5"/>
		<circle class="st1" cx="12.2" cy="15.56" r="1.5"/>
		<circle class="st1" cx="9.42" cy="20.74" r="1.5"/>
		<circle class="st1" cx="29.95" cy="27.32" r="2"/>
		<circle class="st1" cx="10.15" cy="27.32" r="2"/>
		<circle class="st1" cx="20.05" cy="27.32" r="1"/>
		<circle class="st1" cx="20.05" cy="18.48" r="1"/>
		<circle class="st1" cx="16.49" cy="22.99" r="1"/>
		<circle class="st1" cx="17.33" cy="19.87" r="0.5"/>
		<circle class="st1" cx="22.55" cy="19.87" r="0.5"/>
		<circle class="st1" cx="13.86" cy="18.87" r="1"/>
		<circle class="st1" cx="26.1" cy="18.87" r="1"/>
		<circle class="st1" cx="23.73" cy="16.46" r="1"/>
		<circle class="st1" cx="17.19" cy="16.06" r="1"/>
		<circle class="st1" cx="23.55" cy="22.99" r="1"/>
	</g>
</g>
</svg>
