<?xml version="1.0" encoding="utf-8"?>
<!-- Generator: Adobe Illustrator 23.1.1, SVG Export Plug-In . SVG Version: 6.00 Build 0)  -->
<svg version="1.1" id="Layer_1" xmlns="http://www.w3.org/2000/svg" xmlns:xlink="http://www.w3.org/1999/xlink" x="0px" y="0px"
	 viewBox="0 0 170.08 57.26" style="enable-background:new 0 0 170.08 57.26;" xml:space="preserve">
<style type="text/css">
	.st0{fill-rule:evenodd;clip-rule:evenodd;fill:#FFFFFF;}
</style>
<g>
	<polygon class="st0" points="87.21,31.1 85.04,26.52 82.87,31.1 	"/>
	<path class="st0" d="M114.52,0v40.82h-2.27V0H0v57.26h55.56V15.87h2.27v41.39h112.25V0H114.52z M29.58,41.1
		c-7.52,0-12.8-5.21-12.8-12.84c0-7.3,5.6-12.68,12.74-12.68c3.51,0,7.21,0.82,9.52,3.92l-3.51,3.48c-0.92-1.49-3.19-2.53-5.95-2.53
		c-3.86,0-7.27,3-7.27,7.81c0,4.55,2.85,8.06,7.53,8.06c1.36,0,4.46-0.28,6.29-3.63l3.8,2.85C37.1,40.09,32.93,41.1,29.58,41.1z
		 M91.35,40.77l-2.56-5.66h-7.49l-2.56,5.66h-5.91l12.22-25.99l12.22,25.99H91.35z M151.83,31.04c0,5.25-2.72,9.99-9.99,9.99
		c-7.24,0-10.22-4.46-10.22-9.99v-14.8h5.57v14.35c0,3.8,1.33,5.5,4.68,5.5c3.32,0,4.39-1.74,4.39-5.5V16.24h5.56V31.04z"/>
</g>
</svg>
