<?xml version="1.0" encoding="utf-8"?>
<!-- Generator: Adobe Illustrator 23.1.1, SVG Export Plug-In . SVG Version: 6.00 Build 0)  -->
<svg version="1.1" id="Layer_1" xmlns="http://www.w3.org/2000/svg" xmlns:xlink="http://www.w3.org/1999/xlink" x="0px" y="0px"
	 viewBox="0 0 170.1 57.3" style="enable-background:new 0 0 170.1 57.3;" xml:space="preserve">
<style type="text/css">
	.st0{fill-rule:evenodd;clip-rule:evenodd;fill:#666666;}
</style>
<g>
	<polygon class="st0" points="87.2,31.1 85,26.5 82.9,31.1 	"/>
	<path class="st0" d="M114.5,0v40.8h-2.3V0H0v57.3h55.6V15.9h2.3v41.4h112.2V0H114.5z M29.6,41.1c-7.5,0-12.8-5.2-12.8-12.8
		c0-7.3,5.6-12.7,12.7-12.7c3.5,0,7.2,0.8,9.5,3.9L35.5,23c-0.9-1.5-3.2-2.5-6-2.5c-3.9,0-7.3,3-7.3,7.8c0,4.6,2.9,8.1,7.5,8.1
		c1.4,0,4.5-0.3,6.3-3.6l3.8,2.8C37.1,40.1,32.9,41.1,29.6,41.1z M91.3,40.8l-2.6-5.7h-7.5l-2.6,5.7h-5.9l12.2-26l12.2,26H91.3z
		 M151.8,31c0,5.2-2.7,10-10,10c-7.2,0-10.2-4.5-10.2-10V16.2h5.6v14.4c0,3.8,1.3,5.5,4.7,5.5c3.3,0,4.4-1.7,4.4-5.5V16.2h5.6
		L151.8,31L151.8,31z"/>
</g>
</svg>
