<?xml version="1.0" encoding="utf-8"?>
<!-- Generator: Adobe Illustrator 23.1.1, SVG Export Plug-In . SVG Version: 6.00 Build 0)  -->
<svg version="1.1" id="Layer_1" xmlns="http://www.w3.org/2000/svg" xmlns:xlink="http://www.w3.org/1999/xlink" x="0px" y="0px"
	 viewBox="0 0 170.1 57.3" style="enable-background:new 0 0 170.1 57.3;" xml:space="preserve">
<style type="text/css">
	.st0{fill:#666666;}
</style>
<path class="st0" d="M55.8,0v56.7h56.7V0H55.8z M77.5,5.2l2.4-2.4l4.2,4.3l4.3-4.3l2.4,2.4l-4.3,4.3l4.3,4.3l-2.4,2.4l-4.3-4.3
	l-4.3,4.3l-2.4-2.4l4.3-4.3L77.5,5.2z M77.5,21l2.4-2.4l4.3,4.3l4.3-4.3l2.4,2.4l-4.3,4.3l4.3,4.3L88.5,32l-4.4-4.4l-4.3,4.3
	l-2.4-2.4l4.3-4.3L77.5,21z M90.8,51.5l-2.4,2.4l-4.3-4.3l-4.3,4.3l-2.4-2.4l4.3-4.3l-4.3-4.3l2.4-2.4l4.3,4.3l4.3-4.3l2.4,2.4
	l-4.3,4.3L90.8,51.5z M92.4,39.3v-5.2l-2.3,2.2c0,0-1.4,1.4-4.4,2.2c-3,0.8-5.4,0.6-6.8,0.4s-2.7-0.7-3.4-1c-0.8-0.4-2.2-1.1-3.4-3
	c-0.7-1.2-0.7-4-0.7-4l0.1-5.4l-0.4-9.1c0,0,1.4,0.1,2.3,0.1c1.2,0,2.2-0.2,2.2-0.1c0,0.3,0.1,12.7,0.1,12.7s0.1,2.6,0.8,4
	c1.1,2.4,6.2,2.6,6.2,2.6s0.8,0.1,2.6,0s5.2-0.6,6.3-2.7c0,0,0.8-0.9,1.1-5.9c0.3-5.2-0.4-10.5-0.4-10.5l4.9-0.2
	c0,0-0.3,3.7-0.3,10.7s0.6,11.1,0.6,11.1L92.4,39.3z"/>
</svg>
