<?xml version="1.0" encoding="utf-8"?>
<!-- Generator: Adobe Illustrator 23.1.1, SVG Export Plug-In . SVG Version: 6.00 Build 0)  -->
<svg version="1.1" id="ZonMw-logo-cmyk" xmlns="http://www.w3.org/2000/svg" xmlns:xlink="http://www.w3.org/1999/xlink" x="0px"
	 y="0px" viewBox="0 0 575.5 139.4" style="enable-background:new 0 0 575.5 139.4;" xml:space="preserve">
<style type="text/css">
	.st0{fill:#666666;}
</style>
<g>
	<g>
		<polygon class="st0" points="204.1,52.2 232.6,52.2 202.9,99.8 202.9,112.3 253.6,112.3 253.6,97.9 223.9,97.9 253.6,50.3 
			253.6,37.9 204.1,37.9 		"/>
		<path class="st0" d="M369.5,54.2c-2.1,0-3.9,0.2-5.5,0.8s-3.1,1.2-4.5,2s-2.6,1.8-3.7,2.9c-1.1,1.1-2.1,2.3-3,3.5v-8.1h-16.2v57
			h16.2V80.6c0-3.8,0.9-6.7,2.7-8.6s4.3-2.9,7.4-2.9c3.1,0,5.5,1,7.2,2.9c1.7,1.9,2.5,4.8,2.5,8.6v31.7h16.2V75.4
			c0-6.6-1.7-11.8-5-15.5C380.4,56.1,375.6,54.2,369.5,54.2z"/>
		<polygon class="st0" points="443.2,69.3 425.5,37.9 407.9,37.9 407.9,112.3 424,112.3 424,66.7 442.9,95.5 443.3,95.5 462.4,66.4 
			462.4,112.3 478.5,112.3 478.5,37.9 460.9,37.9 		"/>
		<polygon class="st0" points="559.5,55.3 550.1,90 539.3,55.3 525.3,55.3 514.6,89.9 505.5,55.3 489.1,55.3 506.5,112.3 
			521.2,112.3 532.2,77.7 543.1,112.3 557.9,112.3 575.5,55.3 		"/>
		<path class="st0" d="M316.2,62.8c-2.7-2.7-6-4.8-9.7-6.3s-7.8-2.3-12.2-2.3c-4.5,0-8.6,0.8-12.3,2.3c-3.8,1.6-7,3.7-9.8,6.4
			s-4.9,5.8-6.5,9.4c-1.6,3.6-2.3,7.4-2.3,11.5v0.2c0,4.1,0.8,8,2.3,11.5s3.7,6.7,6.4,9.4c2.7,2.7,6,4.8,9.7,6.3s7.8,2.3,12.2,2.3
			c4.5,0,8.6-0.8,12.3-2.3c3.8-1.6,7-3.7,9.8-6.4c2.8-2.7,4.9-5.8,6.5-9.4s2.3-7.4,2.3-11.5v-0.2c0-4.1-0.8-8-2.3-11.5
			C321,68.6,318.9,65.5,316.2,62.8z M309,84.1c0,2.1-0.3,4.1-1,6c-0.7,1.9-1.6,3.5-2.9,4.9c-1.3,1.4-2.8,2.5-4.6,3.3
			c-1.8,0.8-3.9,1.2-6.2,1.2c-2.3,0-4.3-0.4-6.1-1.3c-1.8-0.8-3.4-2-4.7-3.5c-1.4-1.4-2.4-3.1-3.1-5c-0.7-1.9-1.1-3.9-1.1-6v-0.2
			c0-2.1,0.3-4.1,1-6c0.7-1.9,1.6-3.5,2.9-4.9c1.3-1.4,2.8-2.5,4.6-3.3c1.8-0.8,3.9-1.2,6.2-1.2c2.2,0,4.2,0.4,6.1,1.3
			s3.4,2,4.8,3.5c1.4,1.4,2.4,3.1,3.1,5s1.1,3.9,1.1,6V84.1z"/>
	</g>
	<g>
		<path class="st0" d="M113.3,81.2c0,15.1-6.4,28.6-16.5,38.2l23.5,20c22.4-13.9,37.3-38.7,37.3-67C157.6,40,138,12.1,109.9,0
			L86.7,35.7C102.6,44.7,113.3,61.7,113.3,81.2z"/>
		<path class="st0" d="M6,42.2c-3.9,9.3-6,19.5-6,30.2c0,22.8,9.7,43.3,25.2,57.7l30-46.1L6,42.2z"/>
		<path class="st0" d="M72.1,58.1l-16.9,26l23.6,20.1c4.6-5.4,7.4-12.4,7.4-20.1C86.2,73.2,80.6,63.6,72.1,58.1z"/>
	</g>
</g>
</svg>
